<svg xmlns="http://www.w3.org/2000/svg" width="280" height="280" viewBox="0 0 280 280">
<defs></defs>
<g transform="rotate(-2 140 210)"><path d="M26 210 H246 L238 248 H31Z" fill="#e7c98f" stroke="#21151a" stroke-width="5"/><path d="M48 224 H218" stroke="#a87d55" stroke-width="3"/></g><g transform="rotate(2 140 180)"><path d="M40 180 H250 L242 218 H45Z" fill="#e7c98f" stroke="#21151a" stroke-width="5"/><path d="M62 194 H222" stroke="#a87d55" stroke-width="3"/></g><g transform="rotate(-2 140 148)"><path d="M26 148 H226 L218 186 H31Z" fill="#e7c98f" stroke="#21151a" stroke-width="5"/><path d="M48 162 H198" stroke="#a87d55" stroke-width="3"/></g><g transform="rotate(2 140 118)"><path d="M40 118 H260 L252 156 H45Z" fill="#e7c98f" stroke="#21151a" stroke-width="5"/><path d="M62 132 H232" stroke="#a87d55" stroke-width="3"/></g><g transform="rotate(-2 140 86)"><path d="M26 86 H236 L228 124 H31Z" fill="#e7c98f" stroke="#21151a" stroke-width="5"/><path d="M48 100 H208" stroke="#a87d55" stroke-width="3"/></g><g transform="rotate(2 140 56)"><path d="M40 56 H240 L232 94 H45Z" fill="#e7c98f" stroke="#21151a" stroke-width="5"/><path d="M62 70 H212" stroke="#a87d55" stroke-width="3"/></g><path d="M70 45 Q140 28 210 52" fill="none" stroke="#8b3e32" stroke-width="10"/><rect x="112" y="30" width="62" height="38" rx="5" fill="#6d302b" stroke="#21151a" stroke-width="5"/>
</svg>
